<svg xmlns="http://www.w3.org/2000/svg" id="Layer_1" data-name="Layer 1" viewBox="99.52 244.38 256.86 42.02"><defs><style>.cls-1{fill:none;}.cls-2{fill:#413df6;}.cls-3{fill:#fff;}.cls-4{fill:#3eb8eb;}</style></defs><title>logo white</title><rect class="cls-1" x="-0.37" y="-0.29"/><g id="logo"><polygon class="cls-2" points="134.15 258.69 127.02 265.4 105.27 244.4 118.93 244.4 134.15 258.69"/><polygon class="cls-2" points="127.02 265.4 134.15 272.28 119.58 286.35 105.27 286.35 127.02 265.4"/><rect class="cls-2" x="99.52" y="261.73" width="11.49" height="7.67"/><path class="cls-3" d="M236.33,246.42a45.38,45.38,0,0,0-12.54-1.87c-10.4-.31-20.82-.11-31.24-.1a15.75,15.75,0,0,0-1.73.19v41.65h10.87V273.92c7.41,0,14.56.26,21.68-.1,4.32-.22,9.12-.54,13.2-1.93,6-2,8.34-7,8.27-13C244.77,253.17,242.2,248.36,236.33,246.42Zm-6.06,17.65a19.72,19.72,0,0,1-5,.86c-7.44.09-14.87.05-22.31.05a11.79,11.79,0,0,1-1.18-.12v-11c9.05,0,18-.17,26.86.09,3.44.1,5,2,5.25,4.74S232.92,263.29,230.27,264.07Z"/><path class="cls-3" d="M279.44,244.47H268.15v0l-26.44,41.93h11.63l5.12-8.23h30.66l5.12,8.23h11.63l-26.45-41.93Zm4.2,24.89H264l9.84-15.81Z"/><polygon class="cls-3" points="356.38 244.46 343.44 244.46 326.37 264.41 326.38 264.43 326.28 264.41 326.22 264.42 326.23 264.41 309.15 244.46 296.21 244.46 320.95 272.16 320.95 286.27 331.78 286.27 331.78 272 356.38 244.46"/><polygon class="cls-4" points="163.03 244.4 149.37 244.4 134.15 258.69 127.01 265.4 134.15 272.28 148.72 286.35 163.03 286.35 141.28 265.4 163.03 244.4"/><rect class="cls-4" x="157.28" y="261.73" width="11.49" height="7.67"/></g></svg>